<svg xmlns="http://www.w3.org/2000/svg" viewBox="0 0 600 600">
<defs><linearGradient id="g" x1="0" y1="0" x2="1" y2="1"><stop offset="0" stop-color="#fff1d9"/><stop offset="1" stop-color="#fbdba0"/></linearGradient>
<filter id="b" x="-30%" y="-30%" width="160%" height="160%"><feGaussianBlur stdDeviation="12"/></filter></defs>
<rect width="600" height="600" fill="url(#g)"/>
<ellipse cx="300.0" cy="363.3" rx="227.0" ry="137.3" fill="#000" opacity="0.16" filter="url(#b)"/>
<polygon points="385.6,246.9 376.4,252.1 376.4,231.0 385.6,225.7" fill="#382214" stroke="#382214" stroke-width="0.6" stroke-linejoin="round"/>
<polygon points="376.4,252.1 367.2,246.9 367.2,225.7 376.4,231.0" fill="#4f301d" stroke="#4f301d" stroke-width="0.6" stroke-linejoin="round"/>
<polygon points="376.4,220.4 385.6,225.7 376.4,231.0 367.2,225.7" fill="#5e3922" stroke="#5e3922" stroke-width="0.6" stroke-linejoin="round"/>
<polygon points="510.8,319.2 501.7,324.5 501.7,303.3 510.8,298.0" fill="#382214" stroke="#382214" stroke-width="0.6" stroke-linejoin="round"/>
<polygon points="501.7,324.5 492.5,319.2 492.5,298.0 501.7,303.3" fill="#4f301d" stroke="#4f301d" stroke-width="0.6" stroke-linejoin="round"/>
<polygon points="501.7,292.7 510.8,298.0 501.7,303.3 492.5,298.0" fill="#5e3922" stroke="#5e3922" stroke-width="0.6" stroke-linejoin="round"/>
<polygon points="107.5,407.4 98.3,412.7 98.3,391.5 107.5,386.2" fill="#382214" stroke="#382214" stroke-width="0.6" stroke-linejoin="round"/>
<polygon points="98.3,412.7 89.2,407.4 89.2,386.2 98.3,391.5" fill="#4f301d" stroke="#4f301d" stroke-width="0.6" stroke-linejoin="round"/>
<polygon points="98.3,380.9 107.5,386.2 98.3,391.5 89.2,386.2" fill="#5e3922" stroke="#5e3922" stroke-width="0.6" stroke-linejoin="round"/>
<polygon points="232.8,479.7 223.6,485.0 223.6,463.8 232.8,458.5" fill="#382214" stroke="#382214" stroke-width="0.6" stroke-linejoin="round"/>
<polygon points="223.6,485.0 214.4,479.7 214.4,458.5 223.6,463.8" fill="#4f301d" stroke="#4f301d" stroke-width="0.6" stroke-linejoin="round"/>
<polygon points="223.6,453.2 232.8,458.5 223.6,463.8 214.4,458.5" fill="#5e3922" stroke="#5e3922" stroke-width="0.6" stroke-linejoin="round"/>
<polygon points="516.2,298.5 508.5,302.9 508.5,170.6 516.2,166.1" fill="#9e6974" stroke="#9e6974" stroke-width="0.6" stroke-linejoin="round"/>
<polygon points="508.5,302.9 368.0,221.7 368.0,89.4 508.5,170.6" fill="#e196a4" stroke="#e196a4" stroke-width="0.6" stroke-linejoin="round"/>
<polygon points="375.6,85.0 516.2,166.1 508.5,170.6 368.0,89.4" fill="#ffb1c2" stroke="#ffb1c2" stroke-width="0.6" stroke-linejoin="round"/>
<polygon points="513.9,298.0 223.6,465.6 223.6,430.3 513.9,262.7" fill="#966b1b" stroke="#966b1b" stroke-width="0.6" stroke-linejoin="round"/>
<polygon points="223.6,465.6 86.1,386.2 86.1,350.9 223.6,430.3" fill="#d59826" stroke="#d59826" stroke-width="0.6" stroke-linejoin="round"/>
<polygon points="376.4,183.3 513.9,262.7 223.6,430.3 86.1,350.9" fill="#fbb32d" stroke="#fbb32d" stroke-width="0.6" stroke-linejoin="round"/>
<polygon points="232.0,462.5 224.4,466.9 224.4,387.5 232.0,383.1" fill="#9e6974" stroke="#9e6974" stroke-width="0.6" stroke-linejoin="round"/>
<polygon points="224.4,466.9 83.8,385.8 83.8,306.4 224.4,387.5" fill="#e196a4" stroke="#e196a4" stroke-width="0.6" stroke-linejoin="round"/>
<polygon points="91.5,302.0 232.0,383.1 224.4,387.5 83.8,306.4" fill="#ffb1c2" stroke="#ffb1c2" stroke-width="0.6" stroke-linejoin="round"/>
<polygon points="503.2,263.6 225.1,424.1 225.1,395.9 503.2,235.4" fill="#a09e9b" stroke="#a09e9b" stroke-width="0.6" stroke-linejoin="round"/>
<polygon points="225.1,424.1 96.8,350.0 96.8,321.8 225.1,395.9" fill="#e3e1dc" stroke="#e3e1dc" stroke-width="0.6" stroke-linejoin="round"/>
<polygon points="374.9,161.3 503.2,235.4 225.1,395.9 96.8,321.8" fill="#ffffff" stroke="#ffffff" stroke-width="0.6" stroke-linejoin="round"/>
<polygon points="452.8,234.5 406.9,261.0 406.9,243.3 452.8,216.9" fill="#5d8574" stroke="#5d8574" stroke-width="0.6" stroke-linejoin="round"/>
<polygon points="406.9,261.0 330.6,216.9 330.6,199.2 406.9,243.3" fill="#85bca4" stroke="#85bca4" stroke-width="0.6" stroke-linejoin="round"/>
<polygon points="376.4,172.8 452.8,216.9 406.9,243.3 330.6,199.2" fill="#9ddec2" stroke="#9ddec2" stroke-width="0.6" stroke-linejoin="round"/>
<polygon points="288.5,210.2 120.5,307.3 120.5,275.5 288.5,178.5" fill="#966b1b" stroke="#966b1b" stroke-width="0.6" stroke-linejoin="round"/>
<polygon points="120.5,307.3 115.9,304.6 115.9,272.9 120.5,275.5" fill="#d59826" stroke="#d59826" stroke-width="0.6" stroke-linejoin="round"/>
<polygon points="284.0,175.8 288.5,178.5 120.5,275.5 115.9,272.9" fill="#fbb32d" stroke="#fbb32d" stroke-width="0.6" stroke-linejoin="round"/>
<polygon points="423.0,287.9 254.9,384.9 254.9,353.1 423.0,256.1" fill="#966b1b" stroke="#966b1b" stroke-width="0.6" stroke-linejoin="round"/>
<polygon points="254.9,384.9 250.3,382.2 250.3,350.5 254.9,353.1" fill="#d59826" stroke="#d59826" stroke-width="0.6" stroke-linejoin="round"/>
<polygon points="418.4,253.5 423.0,256.1 254.9,353.1 250.3,350.5" fill="#fbb32d" stroke="#fbb32d" stroke-width="0.6" stroke-linejoin="round"/>
</svg>